# xmcd
#
# Track frame offsets:
#	150
#	13800
#	29906
#	45522
#	60216
#	88452
#	102186
#	122189
#	135607
#	157997
#	172519
#	191773
#	211212
#	229771
#	242733
#	260381
#
# Disc length: 3673 seconds
#
# Revision: 0
# Processed by: cddbd v1.5.2PL0 Copyright (c) Steve Scherf et al.
# Submitted via: EasyCDDAExtractor 16.0.9.1
#
DISCID=d40e5710
DTITLE=Darondo - Listen to My Song - The Music City Sessions
DYEAR=2011
DGENRE=Soul
TTITLE0=dont´t Understand It
TTITLE1=I´m gonna Love you
TTITLE2=didin´t I
TTITLE3=Luscious Lady
TTITLE4=Get Up Off Your Butt
TTITLE5=Gimme dome
TTITLE6=Ipm Lonely
TTITLE7=Do You Really Love Me
TTITLE8=The Wolf
TTITLE9=Saving My Love
TTITLE10=Listen to My Song(Music City 1973)
TTITLE11=King´s Man
TTITLE12=Question Mark
TTITLE13=Qualified
TTITLE14=Sexy Mama
TTITLE15=Thank You God
EXTD=
EXTT0=
EXTT1=
EXTT2=
EXTT3=
EXTT4=
EXTT5=
EXTT6=
EXTT7=
EXTT8=
EXTT9=
EXTT10=
EXTT11=
EXTT12=
EXTT13=
EXTT14=
EXTT15=
PLAYORDER=
